<?xml version="1.0" encoding="UTF-8" standalone="no"?>
<!DOCTYPE svg PUBLIC "-//W3C//DTD SVG 1.1//EN" "http://www.w3.org/Graphics/SVG/1.1/DTD/svg11.dtd">
<svg version="1.1" xmlns="http://www.w3.org/2000/svg" xmlns:xlink="http://www.w3.org/1999/xlink" preserveAspectRatio="xMidYMid meet" viewBox="0 0 640 640" width="640" height="640"><defs><path d="M620.75 308.46C620.75 476.07 484.67 612.15 317.06 612.15C149.45 612.15 13.37 476.07 13.37 308.46C13.37 140.85 149.45 4.77 317.06 4.77C484.67 4.77 620.75 140.85 620.75 308.46Z" id="b2HjY8msrb"></path><path d="M413.21 211.57C418.67 211.57 423.1 216 423.1 221.46C423.1 266.04 423.1 389.88 423.1 434.45C423.1 439.92 418.67 444.34 413.21 444.34C373.17 444.34 262.95 444.34 222.91 444.34C217.45 444.34 213.02 439.92 213.02 434.45C213.02 389.88 213.02 266.04 213.02 221.46C213.02 216 217.45 211.57 222.91 211.57C262.95 211.57 373.17 211.57 413.21 211.57Z" id="a3Ssn1t1yQ"></path><path d="M425.09 175.44C430.31 175.44 434.55 179.67 434.55 184.9C434.55 188.72 434.55 190.73 434.55 194.55C434.55 199.77 430.31 204.01 425.09 204.01C379.92 204.01 253.88 204.01 208.71 204.01C203.49 204.01 199.25 199.77 199.25 194.55C199.25 190.73 199.25 188.72 199.25 184.9C199.25 179.67 203.49 175.44 208.71 175.44C253.88 175.44 379.92 175.44 425.09 175.44Z" id="a42JqJXsZs"></path><path d="M356.29 166.19C361.4 166.19 365.54 170.33 365.54 175.44C365.54 177.29 365.54 173.59 365.54 175.44C365.54 180.54 361.4 184.68 356.29 184.68C340.16 184.68 301 184.68 284.87 184.68C279.76 184.68 275.62 180.54 275.62 175.44C275.62 173.59 275.62 177.29 275.62 175.44C275.62 170.33 279.76 166.19 284.87 166.19C301 166.19 340.16 166.19 356.29 166.19Z" id="dWsjNvznQ"></path><path d="M268.06 409.05L268.06 261.15" id="d7fJpIxXzB"></path><path d="M319.06 409.05L319.06 261.15" id="aWuj9Ufmf"></path><path d="M369.57 409.05L369.57 261.15" id="c8ngfA7QE"></path></defs><g><g><g><use xlink:href="#b2HjY8msrb" opacity="1" fill="#9b9b9b" fill-opacity="1"></use><g><use xlink:href="#b2HjY8msrb" opacity="1" fill-opacity="0" stroke="#6f359c" stroke-width="0" stroke-opacity="0"></use></g></g><g><use xlink:href="#a3Ssn1t1yQ" opacity="1" fill="#ffffff" fill-opacity="1"></use><g><use xlink:href="#a3Ssn1t1yQ" opacity="1" fill-opacity="0" stroke="#af50c3" stroke-width="0" stroke-opacity="1"></use></g></g><g><use xlink:href="#a42JqJXsZs" opacity="1" fill="#ffffff" fill-opacity="1"></use></g><g><use xlink:href="#dWsjNvznQ" opacity="1" fill="#ffffff" fill-opacity="1"></use></g><g><g><use xlink:href="#d7fJpIxXzB" opacity="1" fill-opacity="0" stroke="#9b9b9b" stroke-width="9" stroke-opacity="1"></use></g></g><g><g><use xlink:href="#aWuj9Ufmf" opacity="1" fill-opacity="0" stroke="#9b9b9b" stroke-width="9" stroke-opacity="1"></use></g></g><g><g><use xlink:href="#c8ngfA7QE" opacity="1" fill-opacity="0" stroke="#9b9b9b" stroke-width="9" stroke-opacity="1"></use></g></g></g></g></svg>