<?xml version="1.0" encoding="UTF-8" standalone="no"?>
<!DOCTYPE svg PUBLIC "-//W3C//DTD SVG 1.1//EN" "http://www.w3.org/Graphics/SVG/1.1/DTD/svg11.dtd">
<svg version="1.1" xmlns="http://www.w3.org/2000/svg" xmlns:xlink="http://www.w3.org/1999/xlink" preserveAspectRatio="xMidYMid meet" viewBox="0 0 640 640" width="640" height="640"><defs><path d="M619.91 308.46C619.91 476.07 483.83 612.15 316.22 612.15C148.61 612.15 12.53 476.07 12.53 308.46C12.53 140.85 148.61 4.77 316.22 4.77C483.83 4.77 619.91 140.85 619.91 308.46Z" id="b50LipxaR"></path><path d="M781.8 427.79L644.1 317.13L508.85 427.79" id="bqjQI0m8o"></path><path d="M491.31 221.85L491.31 221.85L254.43 221.85L491.31 221.85Z" id="c23ZvURv9c"></path><path d="M298.99 160.34L333.45 160.34L333.45 450.25L298.99 450.25L298.99 160.34Z" id="a37BCVVNPk"></path><path d="" id="ak8DRR1xk"></path><path d="M361.6 184.77C361.6 209.82 341.26 230.15 316.22 230.15C291.17 230.15 270.84 209.82 270.84 184.77C270.84 159.73 291.17 139.39 316.22 139.39C341.26 139.39 361.6 159.73 361.6 184.77Z" id="d3E1NSyiPQ"></path><path d="M335.13 184.83C335.13 195.27 326.65 203.74 316.22 203.74C305.78 203.74 297.31 195.27 297.31 184.83C297.31 174.4 305.78 165.92 316.22 165.92C326.65 165.92 335.13 174.4 335.13 184.83Z" id="ac99skTHo"></path><path d="M248.14 262.19L384.3 262.19L384.3 293.28L248.14 293.28L248.14 262.19Z" id="b1ct0un5J"></path><path d="M436.39 392.86C357.06 484.17 276.95 484.17 196.05 392.86" id="a17xKkujls"></path><path d="M205.92 366.32L239.8 380.96L209.14 403.09L178.47 425.22L175.25 388.45L172.04 351.68L205.92 366.32Z" id="aD3xOhDpo"></path><path d="M456.72 389.78L453.31 426.53L422.76 404.24L392.21 381.95L426.17 367.49L460.13 353.03L456.72 389.78Z" id="a2A83n0RPZ"></path></defs><g><g><g><use xlink:href="#b50LipxaR" opacity="1" fill="#7dd322" fill-opacity="1"></use><g><use xlink:href="#b50LipxaR" opacity="1" fill-opacity="0" stroke="#6f359c" stroke-width="0" stroke-opacity="0"></use></g></g><g><g><use xlink:href="#bqjQI0m8o" opacity="1" fill-opacity="0" stroke="#6f359c" stroke-width="1" stroke-opacity="0"></use></g></g><g><use xlink:href="#c23ZvURv9c" opacity="1" fill="#bf77f6" fill-opacity="1"></use></g><g><use xlink:href="#a37BCVVNPk" opacity="1" fill="#ffffff" fill-opacity="1"></use></g><g><g><use xlink:href="#ak8DRR1xk" opacity="1" fill-opacity="0" stroke="#000000" stroke-width="1" stroke-opacity="1"></use></g></g><g><use xlink:href="#d3E1NSyiPQ" opacity="1" fill="#ffffff" fill-opacity="1"></use></g><g><use xlink:href="#ac99skTHo" opacity="1" fill="#7dd322" fill-opacity="1"></use></g><g><use xlink:href="#b1ct0un5J" opacity="1" fill="#ffffff" fill-opacity="1"></use></g><g><g><use xlink:href="#a17xKkujls" opacity="1" fill-opacity="0" stroke="#ffffff" stroke-width="35" stroke-opacity="1"></use></g></g><g><use xlink:href="#aD3xOhDpo" opacity="1" fill="#ffffff" fill-opacity="1"></use></g><g><use xlink:href="#a2A83n0RPZ" opacity="1" fill="#ffffff" fill-opacity="1"></use></g></g></g></svg>