<?xml version="1.0" encoding="UTF-8" standalone="no"?>
<!DOCTYPE svg PUBLIC "-//W3C//DTD SVG 1.1//EN" "http://www.w3.org/Graphics/SVG/1.1/DTD/svg11.dtd">
<svg version="1.1" xmlns="http://www.w3.org/2000/svg" xmlns:xlink="http://www.w3.org/1999/xlink" preserveAspectRatio="xMidYMid meet" viewBox="0 0 640 640" width="640" height="640"><defs><path d="M619.91 308.46C619.91 476.07 483.83 612.15 316.22 612.15C148.61 612.15 12.53 476.07 12.53 308.46C12.53 140.85 148.61 4.77 316.22 4.77C483.83 4.77 619.91 140.85 619.91 308.46Z" id="fEPP14fCg"></path><path d="M781.8 427.79L644.1 317.13L508.85 427.79" id="a1hf8WH8f7"></path><path d="M492.31 217.85L492.31 217.85L255.43 217.85L492.31 217.85Z" id="e67m1ZGSSy"></path><path d="" id="b12uQPQN8p"></path><path d="M388.31 126.36C393.83 126.36 398.31 130.84 398.31 136.36C398.31 206.8 398.31 408.11 398.31 478.55C398.31 484.07 393.83 488.55 388.31 488.55C354.51 488.55 263.12 488.55 229.32 488.55C223.8 488.55 219.32 484.07 219.32 478.55C219.32 408.11 219.32 206.8 219.32 136.36C219.32 130.84 223.8 126.36 229.32 126.36C263.12 126.36 354.51 126.36 388.31 126.36Z" id="a2vFco1YKg"></path><path d="M397.57 191.63C400.12 191.63 402.19 193.7 402.19 196.25C402.19 197.62 402.19 197.08 402.19 198.45C402.19 201 400.12 203.07 397.57 203.07C384.21 203.07 348.75 203.07 335.39 203.07C332.83 203.07 330.76 201 330.76 198.45C330.76 197.08 330.76 197.62 330.76 196.25C330.76 193.7 332.83 191.63 335.39 191.63C348.75 191.63 384.21 191.63 397.57 191.63Z" id="b1bzZv4gKm"></path><path d="M397.57 263.56C400.12 263.56 402.19 265.63 402.19 268.18C402.19 269.54 402.19 269.01 402.19 270.37C402.19 272.93 400.12 275 397.57 275C384.21 275 348.75 275 335.39 275C332.83 275 330.76 272.93 330.76 270.37C330.76 269.01 330.76 269.54 330.76 268.18C330.76 265.63 332.83 263.56 335.39 263.56C348.75 263.56 384.21 263.56 397.57 263.56Z" id="lt5MdaKp7"></path><path d="M397.57 336.15C400.12 336.15 402.19 338.22 402.19 340.77C402.19 342.13 402.19 341.6 402.19 342.97C402.19 345.52 400.12 347.59 397.57 347.59C384.21 347.59 348.75 347.59 335.39 347.59C332.83 347.59 330.76 345.52 330.76 342.97C330.76 341.6 330.76 342.13 330.76 340.77C330.76 338.22 332.83 336.15 335.39 336.15C348.75 336.15 384.21 336.15 397.57 336.15Z" id="cwaFAlIyd"></path><path d="M397.57 407.08C400.12 407.08 402.19 409.15 402.19 411.7C402.19 413.07 402.19 412.54 402.19 413.9C402.19 416.45 400.12 418.52 397.57 418.52C384.21 418.52 348.75 418.52 335.39 418.52C332.83 418.52 330.76 416.45 330.76 413.9C330.76 412.54 330.76 413.07 330.76 411.7C330.76 409.15 332.83 407.08 335.39 407.08C348.75 407.08 384.21 407.08 397.57 407.08Z" id="cGJtspWtU"></path></defs><g><g><g><use xlink:href="#fEPP14fCg" opacity="1" fill="#4b8fe2" fill-opacity="1"></use><g><use xlink:href="#fEPP14fCg" opacity="1" fill-opacity="0" stroke="#6f359c" stroke-width="0" stroke-opacity="0"></use></g></g><g><g><use xlink:href="#a1hf8WH8f7" opacity="1" fill-opacity="0" stroke="#6f359c" stroke-width="1" stroke-opacity="0"></use></g></g><g><use xlink:href="#e67m1ZGSSy" opacity="1" fill="#bf77f6" fill-opacity="1"></use></g><g><g><use xlink:href="#b12uQPQN8p" opacity="1" fill-opacity="0" stroke="#000000" stroke-width="1" stroke-opacity="1"></use></g></g><g><use xlink:href="#a2vFco1YKg" opacity="1" fill="#ffffff" fill-opacity="1"></use></g><g><use xlink:href="#b1bzZv4gKm" opacity="1" fill="#4b8fe2" fill-opacity="1"></use></g><g><use xlink:href="#lt5MdaKp7" opacity="1" fill="#4b8fe2" fill-opacity="1"></use></g><g><use xlink:href="#cwaFAlIyd" opacity="1" fill="#4b8fe2" fill-opacity="1"></use></g><g><use xlink:href="#cGJtspWtU" opacity="1" fill="#4b8fe2" fill-opacity="1"></use></g></g></g></svg>