<?xml version="1.0" encoding="UTF-8" standalone="no"?>
<!DOCTYPE svg PUBLIC "-//W3C//DTD SVG 1.1//EN" "http://www.w3.org/Graphics/SVG/1.1/DTD/svg11.dtd">
<svg version="1.1" xmlns="http://www.w3.org/2000/svg" xmlns:xlink="http://www.w3.org/1999/xlink" preserveAspectRatio="xMidYMid meet" viewBox="0 0 640 640" width="640" height="640"><defs><path d="M420.81 18.29C429.15 18.29 435.91 25.05 435.91 33.39C435.91 64.04 435.91 140.89 435.91 171.54C435.91 179.87 429.15 186.63 420.81 186.63C387.47 186.63 302.53 186.63 269.19 186.63C260.85 186.63 254.09 179.87 254.09 171.54C254.09 140.89 254.09 64.04 254.09 33.39C254.09 25.05 260.85 18.29 269.19 18.29C302.53 18.29 387.47 18.29 420.81 18.29Z" id="azi0xiFie"></path><path d="M420.81 236.2C429.15 236.2 435.91 242.96 435.91 251.29C435.91 281.94 435.91 358.8 435.91 389.44C435.91 397.78 429.15 404.54 420.81 404.54C387.47 404.54 302.53 404.54 269.19 404.54C260.85 404.54 254.09 397.78 254.09 389.44C254.09 358.8 254.09 281.94 254.09 251.29C254.09 242.96 260.85 236.2 269.19 236.2C302.53 236.2 387.47 236.2 420.81 236.2Z" id="aRjSuY7UE"></path><path d="M420.81 449.43C429.15 449.43 435.91 456.19 435.91 464.52C435.91 495.17 435.91 572.03 435.91 602.67C435.91 611.01 429.15 617.77 420.81 617.77C387.47 617.77 302.53 617.77 269.19 617.77C260.85 617.77 254.09 611.01 254.09 602.67C254.09 572.03 254.09 495.17 254.09 464.52C254.09 456.19 260.85 449.43 269.19 449.43C302.53 449.43 387.47 449.43 420.81 449.43Z" id="bwMvnIZw3"></path></defs><g><g><g><use xlink:href="#azi0xiFie" opacity="1" fill="#ffffff" fill-opacity="1"></use><g><use xlink:href="#azi0xiFie" opacity="1" fill-opacity="0" stroke="#ffffff" stroke-width="15" stroke-opacity="1"></use></g></g><g><use xlink:href="#aRjSuY7UE" opacity="1" fill="#ffffff" fill-opacity="1"></use><g><use xlink:href="#aRjSuY7UE" opacity="1" fill-opacity="0" stroke="#ffffff" stroke-width="15" stroke-opacity="1"></use></g></g><g><use xlink:href="#bwMvnIZw3" opacity="1" fill="#ffffff" fill-opacity="1"></use><g><use xlink:href="#bwMvnIZw3" opacity="1" fill-opacity="0" stroke="#ffffff" stroke-width="15" stroke-opacity="1"></use></g></g></g></g></svg>
