<?xml version="1.0" encoding="UTF-8" standalone="no"?>
<!DOCTYPE svg PUBLIC "-//W3C//DTD SVG 1.1//EN" "http://www.w3.org/Graphics/SVG/1.1/DTD/svg11.dtd">
<svg version="1.1" xmlns="http://www.w3.org/2000/svg" xmlns:xlink="http://www.w3.org/1999/xlink" preserveAspectRatio="xMidYMid meet" viewBox="0 0 640 640" width="640" height="640"><defs><path d="M619.91 308.46C619.91 476.07 483.83 612.15 316.22 612.15C148.61 612.15 12.53 476.07 12.53 308.46C12.53 140.85 148.61 4.77 316.22 4.77C483.83 4.77 619.91 140.85 619.91 308.46Z" id="g8BPOEhYn"></path><path d="M219.89 154.05C225.41 154.05 229.89 158.53 229.89 164.05C229.89 221.88 229.89 385.38 229.89 443.21C229.89 448.73 225.41 453.21 219.89 453.21C202.23 453.21 159.24 453.21 141.57 453.21C136.05 453.21 131.57 448.73 131.57 443.21C131.57 385.38 131.57 221.88 131.57 164.05C131.57 158.53 136.05 154.05 141.57 154.05C159.24 154.05 202.23 154.05 219.89 154.05Z" id="aH2aLLDOh"></path><path d="M217.71 303.63L380.73 179.26L380.73 303.63L217.71 303.63Z" id="b15cgooTWQ"></path><path d="M512.58 443.21C512.58 448.73 508.1 453.21 502.58 453.21C444.75 453.21 281.25 453.21 223.42 453.21C217.9 453.21 213.42 448.73 213.42 443.21C213.42 413.95 213.42 336.17 213.42 306.91C213.42 301.38 217.9 296.91 223.42 296.91C281.25 296.91 444.75 296.91 502.58 296.91C508.1 296.91 512.58 301.38 512.58 306.91C512.58 336.17 512.58 413.95 512.58 443.21Z" id="aoWEChJUo"></path><path d="M349.55 303.63L512.58 179.26L512.58 303.63L349.55 303.63Z" id="cIPi2zh2I"></path></defs><g><g><g><use xlink:href="#g8BPOEhYn" opacity="1" fill="#4b8fe2" fill-opacity="1"></use><g><use xlink:href="#g8BPOEhYn" opacity="1" fill-opacity="0" stroke="#6f359c" stroke-width="0" stroke-opacity="0"></use></g></g><g><use xlink:href="#aH2aLLDOh" opacity="1" fill="#ffffff" fill-opacity="1"></use><g><use xlink:href="#aH2aLLDOh" opacity="1" fill-opacity="0" stroke="#cbc914" stroke-width="0" stroke-opacity="1"></use></g></g><g><use xlink:href="#b15cgooTWQ" opacity="1" fill="#ffffff" fill-opacity="1"></use></g><g><use xlink:href="#aoWEChJUo" opacity="1" fill="#ffffff" fill-opacity="1"></use><g><use xlink:href="#aoWEChJUo" opacity="1" fill-opacity="0" stroke="#cbc914" stroke-width="0" stroke-opacity="1"></use></g></g><g><use xlink:href="#cIPi2zh2I" opacity="1" fill="#ffffff" fill-opacity="1"></use></g></g></g></svg>