<?xml version="1.0" encoding="UTF-8" standalone="no"?>
<!DOCTYPE svg PUBLIC "-//W3C//DTD SVG 1.1//EN" "http://www.w3.org/Graphics/SVG/1.1/DTD/svg11.dtd">
<svg version="1.1" xmlns="http://www.w3.org/2000/svg" xmlns:xlink="http://www.w3.org/1999/xlink" preserveAspectRatio="xMidYMid meet" viewBox="0 0 640 640" width="640" height="640"><defs><path d="M619.91 309.42C619.91 477.03 483.83 613.11 316.22 613.11C148.61 613.11 12.53 477.03 12.53 309.42C12.53 141.81 148.61 5.74 316.22 5.74C483.83 5.74 619.91 141.81 619.91 309.42Z" id="l1yb9OIxRM"></path><path d="M234.27 190.31C238.58 190.31 242.07 193.8 242.07 198.11C242.07 243.25 242.07 370.85 242.07 415.98C242.07 420.29 238.58 423.79 234.27 423.79C220.48 423.79 186.93 423.79 173.15 423.79C168.83 423.79 165.34 420.29 165.34 415.98C165.34 370.85 165.34 243.25 165.34 198.11C165.34 193.8 168.83 190.31 173.15 190.31C186.93 190.31 220.48 190.31 234.27 190.31Z" id="bUkVXCDem"></path><path d="M232.56 307.05L359.8 209.99L359.8 307.05L232.56 307.05Z" id="d1JCea6eNK"></path><path d="M462.7 415.98C462.7 420.29 459.2 423.79 454.89 423.79C409.76 423.79 282.16 423.79 237.02 423.79C232.71 423.79 229.22 420.29 229.22 415.98C229.22 393.15 229.22 332.44 229.22 309.61C229.22 305.3 232.71 301.8 237.02 301.8C282.16 301.8 409.76 301.8 454.89 301.8C459.2 301.8 462.7 305.3 462.7 309.61C462.7 332.44 462.7 393.15 462.7 415.98Z" id="b5YGeXu7n"></path><path d="M335.46 307.05L462.7 209.99L462.7 307.05L335.46 307.05Z" id="bXAvA3bkB"></path></defs><g><g><g><use xlink:href="#l1yb9OIxRM" opacity="1" fill="#d0011b" fill-opacity="1"></use><g><use xlink:href="#l1yb9OIxRM" opacity="1" fill-opacity="0" stroke="#6f359c" stroke-width="0" stroke-opacity="0"></use></g></g><g><use xlink:href="#bUkVXCDem" opacity="1" fill="#ffffff" fill-opacity="1"></use><g><use xlink:href="#bUkVXCDem" opacity="1" fill-opacity="0" stroke="#cbc914" stroke-width="0" stroke-opacity="1"></use></g></g><g><use xlink:href="#d1JCea6eNK" opacity="1" fill="#ffffff" fill-opacity="1"></use></g><g><use xlink:href="#b5YGeXu7n" opacity="1" fill="#ffffff" fill-opacity="1"></use><g><use xlink:href="#b5YGeXu7n" opacity="1" fill-opacity="0" stroke="#cbc914" stroke-width="0" stroke-opacity="1"></use></g></g><g><use xlink:href="#bXAvA3bkB" opacity="1" fill="#ffffff" fill-opacity="1"></use></g></g></g></svg>