<?xml version="1.0" encoding="UTF-8" standalone="no"?>
<!DOCTYPE svg PUBLIC "-//W3C//DTD SVG 1.1//EN" "http://www.w3.org/Graphics/SVG/1.1/DTD/svg11.dtd">
<svg version="1.1" xmlns="http://www.w3.org/2000/svg" xmlns:xlink="http://www.w3.org/1999/xlink" preserveAspectRatio="xMidYMid meet" viewBox="0 0 640 640" width="640" height="640"><defs><path d="M602.48 85.78C604.69 85.78 606.48 87.57 606.48 89.78C606.48 106.32 606.48 151.96 606.48 168.5C606.48 170.71 604.69 172.5 602.48 172.5C490.09 172.5 156.92 172.5 44.52 172.5C42.32 172.5 40.52 170.71 40.52 168.5C40.52 151.96 40.52 106.32 40.52 89.78C40.52 87.57 42.32 85.78 44.52 85.78C156.92 85.78 490.09 85.78 602.48 85.78Z" id="b1lrtsOgRH"></path><path d="M602.48 239.08C604.69 239.08 606.48 240.87 606.48 243.08C606.48 259.62 606.48 305.26 606.48 321.81C606.48 324.01 604.69 325.81 602.48 325.81C490.09 325.81 156.92 325.81 44.52 325.81C42.32 325.81 40.52 324.01 40.52 321.81C40.52 305.26 40.52 259.62 40.52 243.08C40.52 240.87 42.32 239.08 44.52 239.08C156.92 239.08 490.09 239.08 602.48 239.08Z" id="b7a22DMO7"></path><path d="M602.48 393.35C604.69 393.35 606.48 395.14 606.48 397.35C606.48 413.9 606.48 459.53 606.48 476.08C606.48 478.29 604.69 480.08 602.48 480.08C490.09 480.08 156.92 480.08 44.52 480.08C42.32 480.08 40.52 478.29 40.52 476.08C40.52 459.53 40.52 413.9 40.52 397.35C40.52 395.14 42.32 393.35 44.52 393.35C156.92 393.35 490.09 393.35 602.48 393.35Z" id="h1QQSEi4iY"></path><path d="M461.06 85.78C462.72 85.78 464.06 87.12 464.06 88.77C464.06 105.52 464.06 152.76 464.06 169.51C464.06 171.16 462.72 172.5 461.06 172.5C376.95 172.5 127.63 172.5 43.52 172.5C41.87 172.5 40.52 171.16 40.52 169.51C40.52 152.76 40.52 105.52 40.52 88.77C40.52 87.12 41.87 85.78 43.52 85.78C127.63 85.78 376.95 85.78 461.06 85.78Z" id="cLRCAIbAy"></path><path d="M279.02 239.08C279.96 239.08 280.72 239.84 280.72 240.78C280.72 257.78 280.72 307.1 280.72 324.11C280.72 325.05 279.96 325.81 279.02 325.81C231.32 325.81 89.92 325.81 42.22 325.81C41.29 325.81 40.52 325.05 40.52 324.11C40.52 307.1 40.52 257.78 40.52 240.78C40.52 239.84 41.29 239.08 42.22 239.08C89.92 239.08 231.32 239.08 279.02 239.08Z" id="b3YGI5RMa9"></path><path d="M402.39 393.35C403.81 393.35 404.96 394.5 404.96 395.93C404.96 412.76 404.96 460.67 404.96 477.5C404.96 478.92 403.81 480.08 402.39 480.08C330.02 480.08 115.47 480.08 43.1 480.08C41.68 480.08 40.52 478.92 40.52 477.5C40.52 460.67 40.52 412.76 40.52 395.93C40.52 394.5 41.68 393.35 43.1 393.35C115.47 393.35 330.02 393.35 402.39 393.35Z" id="i2K46HQWlF"></path></defs><g><g><g><use xlink:href="#b1lrtsOgRH" opacity="1" fill="#000000" fill-opacity="0"></use><g><use xlink:href="#b1lrtsOgRH" opacity="1" fill-opacity="0" stroke="#ffffff" stroke-width="50" stroke-opacity="1"></use></g></g><g><use xlink:href="#b7a22DMO7" opacity="1" fill="#000000" fill-opacity="0"></use><g><use xlink:href="#b7a22DMO7" opacity="1" fill-opacity="0" stroke="#ffffff" stroke-width="50" stroke-opacity="1"></use></g></g><g><use xlink:href="#h1QQSEi4iY" opacity="1" fill="#000000" fill-opacity="0"></use><g><use xlink:href="#h1QQSEi4iY" opacity="1" fill-opacity="0" stroke="#ffffff" stroke-width="50" stroke-opacity="1"></use></g></g><g><use xlink:href="#cLRCAIbAy" opacity="1" fill="#ffffff" fill-opacity="1"></use><g><use xlink:href="#cLRCAIbAy" opacity="1" fill-opacity="0" stroke="#ffffff" stroke-width="30" stroke-opacity="1"></use></g></g><g><use xlink:href="#b3YGI5RMa9" opacity="1" fill="#ffffff" fill-opacity="1"></use><g><use xlink:href="#b3YGI5RMa9" opacity="1" fill-opacity="0" stroke="#ffffff" stroke-width="30" stroke-opacity="1"></use></g></g><g><use xlink:href="#i2K46HQWlF" opacity="1" fill="#ffffff" fill-opacity="1"></use><g><use xlink:href="#i2K46HQWlF" opacity="1" fill-opacity="0" stroke="#ffffff" stroke-width="30" stroke-opacity="1"></use></g></g></g></g></svg>