<?xml version="1.0" encoding="UTF-8" standalone="no"?>
<!DOCTYPE svg PUBLIC "-//W3C//DTD SVG 1.1//EN" "http://www.w3.org/Graphics/SVG/1.1/DTD/svg11.dtd">
<svg version="1.1" xmlns="http://www.w3.org/2000/svg" xmlns:xlink="http://www.w3.org/1999/xlink" preserveAspectRatio="xMidYMid meet" viewBox="0 0 640 640" width="640" height="640"><defs><path d="M506.27 423.45L506.27 166.26" id="gTYmWEZA7"></path><path d="M213.4 360.97L213.4 166.26" id="c6MsAWw9TJ"></path><path d="M436.16 423.45L436.16 166.26" id="c1ZcKeQEsT"></path><path d="M289.31 360.97L289.31 166.26" id="bHDJ0ReFL"></path><path d="M362.32 360.97L362.32 166.26" id="d1ELJbM9Hp"></path><path d="M177.83 503.11C292.09 520.33 409.49 409.2 420.45 399.8C431.41 390.41 340.62 362.24 323.4 393.54C311.92 414.41 285.31 430.59 243.57 442.07C176.72 421.12 157.39 415.35 185.57 424.74C199.18 429.28 219.12 435.06 245.36 442.07L286.08 426.69C310.96 413.98 318.18 402.93 307.75 393.54C297.31 384.15 275.92 384.15 243.57 393.54C217.48 406.06 188.78 401.89 157.48 381.02C126.17 360.15 91.21 359.11 52.6 377.89L52.6 463.12C59.9 478.3 101.65 491.64 177.83 503.11Z" id="e1yee2Rkll"></path><path d="M346.17 457.3L555.41 457.3L555.41 120.41L161.15 120.41" id="cNrPsRuJi"></path><path d="M161.15 386.47L161.15 112.99" id="a1CD0MMe2"></path></defs><g><g><g><use xlink:href="#gTYmWEZA7" opacity="1" fill="#000000" fill-opacity="0"></use><g><use xlink:href="#gTYmWEZA7" opacity="1" fill-opacity="0" stroke="#ffffff" stroke-width="15" stroke-opacity="1"></use></g></g><g><use xlink:href="#c6MsAWw9TJ" opacity="1" fill="#000000" fill-opacity="0"></use><g><use xlink:href="#c6MsAWw9TJ" opacity="1" fill-opacity="0" stroke="#ffffff" stroke-width="15" stroke-opacity="1"></use></g></g><g><use xlink:href="#c1ZcKeQEsT" opacity="1" fill="#000000" fill-opacity="0"></use><g><use xlink:href="#c1ZcKeQEsT" opacity="1" fill-opacity="0" stroke="#ffffff" stroke-width="15" stroke-opacity="1"></use></g></g><g><use xlink:href="#bHDJ0ReFL" opacity="1" fill="#000000" fill-opacity="0"></use><g><use xlink:href="#bHDJ0ReFL" opacity="1" fill-opacity="0" stroke="#ffffff" stroke-width="15" stroke-opacity="1"></use></g></g><g><use xlink:href="#d1ELJbM9Hp" opacity="1" fill="#000000" fill-opacity="0"></use><g><use xlink:href="#d1ELJbM9Hp" opacity="1" fill-opacity="0" stroke="#ffffff" stroke-width="15" stroke-opacity="1"></use></g></g><g><use xlink:href="#e1yee2Rkll" opacity="1" fill="#000000" fill-opacity="0"></use><g><use xlink:href="#e1yee2Rkll" opacity="1" fill-opacity="0" stroke="#ffffff" stroke-width="15" stroke-opacity="1"></use></g></g><g><g><use xlink:href="#cNrPsRuJi" opacity="1" fill-opacity="0" stroke="#ffffff" stroke-width="15" stroke-opacity="1"></use></g></g><g><g><use xlink:href="#a1CD0MMe2" opacity="1" fill-opacity="0" stroke="#ffffff" stroke-width="15" stroke-opacity="1"></use></g></g></g></g></svg>